<?xml version="1.0" standalone="no"?>
<!DOCTYPE svg PUBLIC "-//W3C//DTD SVG 20010904//EN"
 "http://www.w3.org/TR/2001/REC-SVG-20010904/DTD/svg10.dtd">
<svg version="1.0" xmlns="http://www.w3.org/2000/svg"
 width="984.000000pt" height="995.000000pt" viewBox="0 0 984.000000 995.000000"
 preserveAspectRatio="xMidYMid meet">

<g transform="translate(0.000000,995.000000) scale(0.100000,-0.100000)"
fill="#000000" stroke="none">
<path d="M0 4975 l0 -4975 4920 0 4920 0 0 4975 0 4975 -4920 0 -4920 0 0
-4975z m4620 921 c88 -6 201 -36 271 -72 184 -93 234 -279 112 -414 -45 -51
-138 -104 -199 -116 -41 -7 -43 -17 -9 -32 46 -21 126 -105 155 -162 15 -30
39 -91 54 -136 28 -86 61 -128 108 -139 l28 -7 2 533 3 534 107 -1 c160 -1
245 -30 312 -104 51 -56 83 -140 152 -388 9 -35 20 -59 24 -55 4 4 17 44 29
88 35 134 81 268 107 312 56 97 154 140 342 150 l112 6 -2 -624 -3 -624 -195
0 -195 0 -3 45 c-10 121 30 220 140 354 105 127 157 254 183 453 30 232 25
239 -34 41 -68 -228 -92 -261 -267 -363 -140 -82 -170 -119 -189 -227 -5 -32
-10 -38 -30 -38 -20 0 -25 5 -25 26 0 44 -21 101 -52 138 -16 19 -78 65 -139
102 -175 105 -199 137 -263 354 -21 69 -42 132 -47 140 -14 24 -11 -60 7 -178
30 -204 84 -328 204 -473 91 -109 116 -173 122 -309 l3 -65 -200 0 -200 0 -3
38 c-2 20 -4 37 -6 37 -2 0 -29 -13 -62 -29 -143 -70 -259 -61 -376 31 -76 60
-91 128 -74 339 8 93 7 109 -9 132 -16 26 -58 43 -115 49 -17 2 -26 10 -28 24
-3 18 3 22 45 28 189 26 215 195 56 367 -76 82 -161 123 -265 128 -75 3 -78 2
-108 -27 -55 -55 -33 -99 90 -182 115 -77 141 -115 149 -213 3 -40 5 -219 3
-400 l-3 -327 -197 2 -197 3 -3 96 -3 95 -52 -48 c-62 -58 -158 -110 -247
-134 -96 -27 -317 -24 -424 5 -117 31 -180 64 -239 123 -83 84 -106 178 -67
281 37 99 153 177 313 212 26 5 22 9 -51 45 -87 44 -155 108 -193 181 -33 65
-38 181 -11 235 48 93 154 151 297 161 101 7 158 -8 307 -83 125 -63 173 -70
213 -30 14 14 27 42 31 65 8 49 39 58 50 15 11 -44 -4 -178 -27 -239 -67 -179
-275 -247 -429 -140 -21 15 -75 74 -120 131 -45 57 -91 111 -103 119 -28 19
-96 19 -124 0 -32 -22 -57 -96 -49 -146 9 -59 48 -130 95 -172 84 -76 161 -98
381 -106 l165 -6 -22 -22 c-21 -21 -32 -23 -136 -23 -97 0 -119 -3 -157 -22
-61 -32 -83 -75 -77 -153 10 -128 98 -275 197 -329 113 -61 267 -41 391 51 35
26 70 46 77 45 9 -2 12 71 12 341 0 422 8 472 89 575 69 87 234 147 376 136
22 -2 74 -6 115 -8z m-2059 -25 c161 -42 285 -127 331 -226 35 -77 32 -180 -8
-266 -59 -125 -187 -218 -355 -259 -102 -24 -209 -27 -209 -5 0 8 17 19 43 26
56 15 102 51 129 102 18 34 23 58 23 127 0 78 -3 92 -37 163 -69 144 -209 249
-333 251 -70 1 -111 -19 -121 -60 -12 -47 19 -89 108 -147 164 -107 158 -85
158 -557 l0 -380 -197 2 -198 3 -3 435 c-2 288 1 458 9 503 28 168 139 274
329 311 55 10 257 -3 331 -23z m4839 -1 c36 -12 128 -53 205 -91 120 -59 148
-69 193 -69 93 0 161 54 178 140 7 34 29 49 46 32 7 -7 6 -33 -1 -83 -45 -294
-329 -448 -636 -344 -26 9 -49 15 -51 12 -2 -2 6 -19 19 -38 29 -43 84 -74
172 -95 52 -13 78 -26 103 -50 l32 -32 -2 -304 -3 -303 -195 0 -195 0 -3 428
-2 428 -65 30 c-76 34 -127 37 -155 9 -22 -22 -26 -70 -9 -102 9 -16 8 -24 -5
-36 -14 -15 -19 -13 -51 18 -159 154 -80 414 142 470 59 15 209 4 283 -20z
m-585 -2 c3 -13 4 -293 3 -623 l-3 -600 -200 0 -200 0 -3 610 c-1 336 0 616 3
623 3 9 53 12 199 12 195 0 196 0 201 -22z m-3174 -1755 c39 -23 59 -64 59
-122 0 -42 -5 -56 -31 -86 -49 -55 -115 -64 -188 -26 -49 27 -68 133 -33 193
35 62 125 81 193 41z m1742 15 c13 1 17 -7 17 -39 0 -45 -6 -50 -20 -14 -22
58 -115 56 -108 -3 2 -22 15 -33 62 -59 90 -47 106 -79 63 -128 -18 -22 -31
-27 -67 -26 -95 2 -100 5 -100 54 0 35 11 34 31 -2 9 -15 29 -31 44 -35 51
-13 98 42 63 74 -7 7 -35 24 -63 38 -54 29 -78 64 -68 101 8 30 59 52 98 44
17 -3 38 -6 48 -5z m-2457 -13 c-22 -16 -16 -35 28 -90 l22 -28 31 54 c27 49
29 55 14 66 -13 10 -9 12 29 12 44 1 45 0 24 -17 -42 -33 -84 -124 -84 -180 0
-40 4 -52 15 -52 8 0 15 -4 15 -10 0 -5 -20 -10 -45 -10 -25 0 -45 5 -45 10 0
6 5 10 10 10 6 0 10 20 10 46 0 36 -8 57 -40 104 -22 32 -40 64 -40 69 0 6 -7
11 -15 11 -8 0 -15 5 -15 10 0 6 24 10 53 10 48 -1 50 -2 33 -15z m1200 0
c-16 -12 -18 -25 -15 -105 4 -82 6 -94 28 -111 32 -26 77 -24 106 6 23 22 25
32 25 115 0 53 -4 90 -10 90 -5 0 -10 5 -10 10 0 6 16 10 37 10 34 0 35 -1 21
-17 -12 -13 -17 -45 -20 -110 -3 -79 -6 -95 -26 -116 -27 -29 -72 -38 -119
-25 -53 14 -67 46 -67 154 -1 68 -4 94 -13 94 -7 0 -13 5 -13 10 0 6 21 10 48
10 42 -1 45 -2 28 -15z m704 2 c36 -18 48 -59 26 -92 -10 -15 -27 -30 -37 -32
-10 -3 -19 -7 -19 -10 0 -10 55 -79 79 -100 l26 -23 -32 0 c-28 0 -37 8 -73
60 -51 75 -70 78 -70 10 0 -38 4 -50 15 -50 8 0 15 -4 15 -10 0 -5 -21 -10
-47 -10 -44 0 -45 1 -30 18 24 26 25 232 2 232 -8 0 -15 5 -15 10 0 14 130 12
160 -3z m1129 -24 c0 -33 -1 -35 -9 -15 -11 26 -55 45 -87 37 -24 -6 -37 -37
-31 -76 4 -31 55 -40 75 -13 11 16 13 13 13 -24 l0 -42 -21 21 c-11 11 -30 19
-42 17 -19 -3 -22 -10 -25 -61 l-3 -58 58 3 c49 3 60 6 68 26 14 32 27 27 23
-10 l-3 -33 -105 -2 c-90 -2 -102 -1 -87 11 14 11 17 30 17 121 0 91 -3 110
-17 121 -15 11 -4 13 80 14 l97 0 -1 -37z m448 19 c-14 -15 -17 -40 -17 -125
l0 -107 54 0 c51 0 55 2 65 30 14 41 21 38 21 -10 l0 -40 -102 0 c-97 0 -100
1 -85 18 25 28 25 219 0 238 -16 12 -12 13 31 14 47 0 48 -1 33 -18z m653 -12
c0 -16 -4 -30 -10 -30 -5 0 -10 7 -10 15 0 20 -47 38 -77 30 -20 -5 -23 -11
-23 -60 0 -54 0 -55 30 -55 23 0 30 4 30 20 0 11 5 20 10 20 6 0 10 -19 10
-42 0 -39 -1 -40 -18 -25 -10 10 -28 17 -40 17 -20 0 -22 -5 -22 -55 0 -42 3
-55 15 -55 8 0 15 -4 15 -10 0 -5 -24 -10 -52 -10 -46 1 -51 2 -35 14 14 11
17 30 17 121 0 91 -3 110 -17 121 -15 11 -4 13 80 14 l97 0 0 -30z"/>
<path d="M3523 4110 c-53 -22 -71 -131 -30 -190 60 -89 167 -44 167 70 0 93
-64 149 -137 120z"/>
<path d="M4737 4103 c-4 -3 -7 -28 -7 -55 0 -48 0 -48 33 -48 57 0 88 58 51
94 -15 16 -65 22 -77 9z"/>
</g>
</svg>
